<svg xmlns="http://www.w3.org/2000/svg" xmlns:xlink="http://www.w3.org/1999/xlink" version="1.1" class="" pagealignment="none" x="0px" y="0px" viewBox="0 0 842 595" enable-background="new 0 0 842 595" xml:space="preserve">
    <style>
        .e3-path {
          stroke-dasharray: 3239.2685546875 3239.2685546875;
          stroke-dashoffset: 0;
          -webkit-animation-name: e3-path-animate;
          -moz-animation-name: e3-path-animate;
          animation-name: e3-path-animate;
          -webkit-animation-duration: 3s;
          -moz-animation-duration: 3s;
          animation-duration: 3s;
          -webkit-animation-iteration-count: 1;
          -moz-animation-iteration-count: 1;
          animation-iteration-count: 1;
          -webkit-animation-direction: normal;
          -moz-animation-direction: normal;
          animation-direction: normal;
          -webkit-animation-timing-function: ease-in;
          -moz-animation-timing-function: ease-in;
          animation-timing-function: ease-in;
        }
        @-webkit-keyframes e3-path-animate {
          0%   { stroke-dashoffset: 3239.2685546875; }
          100% { stroke-dashoffset: 0; }
        }
        @-moz-keyframes e3-path-animate {
          0%   { stroke-dashoffset: 3239.2685546875; }
          100% { stroke-dashoffset: 0; }
        }
        @-o-keyframes e3-path-animate {
          0%   { stroke-dashoffset: 3239.2685546875; }
          100% { stroke-dashoffset: 0; }
        }
        @keyframes e3-path-animate {
          0%   { stroke-dashoffset: 3239.2685546875; }
          100% { stroke-dashoffset: 0; }
        }
    </style>
    <g>
    <path class="e3-path" stroke-miterlimit="3" stroke-width="10" stroke="#000000" fill="none" d="M277.2725581395349,428.69534883720934 C360.29767441860463,386.39953488372095 503.633488372093,297.8916279069767 461.33767441860465,236.79767441860463 C419.0418604651163,175.70372093023258 343.0660465116279,254.02930232558145 333.66697674418606,311.2069767441861 C324.2679069767442,368.3846511627907 312.51906976744203,459.2423255813954 398.6772093023257,420.07953488372095 C487.1851162790699,355.0693023255814 456.63813953488386,381.70000000000005 513.0325581395351,321.3893023255814 C578.8260465116281,254.81255813953487 604.6734883720933,236.01441860465115 636.0037209302328,233.6646511627907 C674.3832558139538,235.23116279069768 708.8465116279071,243.06372093023256 704.9302325581398,286.14279069767446 C703.3637209302328,321.3893023255814 665.7674418604653,337.0544186046512 602.3237209302328,352.71953488372094 C669.6837209302328,333.9213953488372 669.6837209302327,335.4879069767443 714.3293023255816,348.02000000000004 C758.9748837209305,367.60139534883723 754.2753488372099,469.4246511627907 647.752558139535,486.6562790697675 C527.131162790698,507.8041860465117 452.721860465118,508.5874418604653 347.765581395349,487.43953488372097 C242.80930232558165,466.2916279069767 225.57767441860477,420.07953488372095 195.81395348837222,370.7344186046512 C177.79906976744198,317.473023255814 228.71069767441873,214.866511627907 276.48930232558155,188.23581395348836 C341.4995348837211,158.4720930232558 366.56372093023157,153.77255813953488 490.31813953488387,158.4720930232558 C614.0725581395382,163.17162790697674 679.0827906976747,149.85627906976742 733.9106976744188,203.11767441860465 C789.5218604651164,260.2953488372093 801.2706976744188,315.12325581395373 798.1376744186049,407.54744186046514 C780.1227906976756,497.6218604651163 617.205581395349,533.6516279069764 520.0818604651165,557.9325581395349 ">
    </path>
    </g>
</svg>