<?xml version="1.0" encoding="utf-8"?>
<!-- Generator: Adobe Illustrator 15.0.0, SVG Export Plug-In . SVG Version: 6.00 Build 0)  -->
<!DOCTYPE svg PUBLIC "-//W3C//DTD SVG 1.1//EN" "http://www.w3.org/Graphics/SVG/1.1/DTD/svg11.dtd">
<svg version="1.1" id="Layer_1" xmlns="http://www.w3.org/2000/svg" xmlns:xlink="http://www.w3.org/1999/xlink" x="0px" y="0px"
	 width="612px" height="792px" viewBox="0 0 612 792" enable-background="new 0 0 612 792" xml:space="preserve">
<g>
	<g>
		<defs>
			<path id="SVGID_1_" d="M12.8,396.4C12.8,558,144,689.2,305.6,689.2S598.4,558,598.4,396.4c0.8-162.4-130.4-293.6-292-293.6
				C144,102.8,12.8,234,12.8,396.4"/>
		</defs>
		<clipPath id="SVGID_2_">
			<use xlink:href="#SVGID_1_"  overflow="visible"/>
		</clipPath>
		<path clip-path="url(#SVGID_2_)" fill="#E3F4FC" d="M599.2,396.4c0,161.6-131.2,292.8-292.8,292.8C144,689.2,12.8,558,12.8,396.4
			C12.8,234,144,102.8,306.4,102.8C468,102.8,599.2,234,599.2,396.4"/>
	</g>
	<g>
		<defs>
			<path id="SVGID_3_" d="M12.8,396.4C12.8,558,144,689.2,305.6,689.2S598.4,558,598.4,396.4c0.8-162.4-130.4-293.6-292-293.6
				C144,102.8,12.8,234,12.8,396.4"/>
		</defs>
		<clipPath id="SVGID_4_">
			<use xlink:href="#SVGID_3_"  overflow="visible"/>
		</clipPath>
		<path clip-path="url(#SVGID_4_)" fill="#FBAD2E" d="M421.6,359.6c0,65.6-53.6,119.2-119.2,119.2s-119.2-53.6-119.2-119.2
			s53.6-119.2,119.2-119.2S421.6,294,421.6,359.6"/>
	</g>
	<g>
		<defs>
			<path id="SVGID_5_" d="M12.8,396.4C12.8,558,144,689.2,305.6,689.2S598.4,558,598.4,396.4c0.8-162.4-130.4-293.6-292-293.6
				C144,102.8,12.8,234,12.8,396.4"/>
		</defs>
		<clipPath id="SVGID_6_">
			<use xlink:href="#SVGID_5_"  overflow="visible"/>
		</clipPath>
		<path clip-path="url(#SVGID_6_)" fill="#44B64A" d="M312,748.4l-68-23.2c7.2,8.8-163.2-49.6-226.4-125.6
			C-3.2,574.8-16.8,390-16.8,390h622.4c0,0,6.4,156.8-12,196C575.2,625.2,312,748.4,312,748.4"/>
	</g>
	<g>
		<defs>
			<path id="SVGID_7_" d="M12.8,396.4C12.8,558,144,689.2,305.6,689.2S598.4,558,598.4,396.4c0.8-162.4-130.4-293.6-292-293.6
				C144,102.8,12.8,234,12.8,396.4"/>
		</defs>
		<clipPath id="SVGID_8_">
			<use xlink:href="#SVGID_7_"  overflow="visible"/>
		</clipPath>
		<path clip-path="url(#SVGID_8_)" fill="#339E47" d="M297.6,390c0,0-45.6,26.4-48,54.4c-5.6,66.4,107.2,46.4,116.8,71.2
			c16,42.4-181.6,44-168,131.2c5.6,36.8,57.6,76,100,103.2L424,679.6c-52-8.8-92-18.4-84.8-36.8c15.2-39.2,116-68,117.6-107.2
			c3.2-72.8-85.6-78.4-127.2-80c-54.4-2.4-12-64.8-12-64.8h-20V390z"/>
	</g>
	<g>
		<defs>
			<path id="SVGID_9_" d="M12.8,396.4C12.8,558,144,689.2,305.6,689.2S598.4,558,598.4,396.4c0.8-162.4-130.4-293.6-292-293.6
				C144,102.8,12.8,234,12.8,396.4"/>
		</defs>
		<clipPath id="SVGID_10_">
			<use xlink:href="#SVGID_9_"  overflow="visible"/>
		</clipPath>
		<path clip-path="url(#SVGID_10_)" fill="#E3F4FC" d="M599.2,396.4c0,161.6-131.2,292.8-292.8,292.8C144,689.2,12.8,558,12.8,396.4
			C12.8,234,144,102.8,306.4,102.8C468,102.8,599.2,234,599.2,396.4"/>
	</g>
	<g>
		<g>
			<defs>
				<path id="SVGID_11_" d="M12.8,396.4C12.8,558,144,689.2,305.6,689.2S598.4,558,598.4,396.4c0.8-162.4-130.4-293.6-292-293.6
					C144,102.8,12.8,234,12.8,396.4"/>
			</defs>
			<clipPath id="SVGID_12_">
				<use xlink:href="#SVGID_11_"  overflow="visible"/>
			</clipPath>
			<polygon clip-path="url(#SVGID_12_)" fill="#E87743" points="406.4,206.8 425.6,270.8 481.6,308.4 454.4,370 473.6,434 
				413.6,464.4 386.4,526.3 1.6,510 261.6,540.4 221.6,486 156,470 160,403.6 120,349.2 166.4,300.4 170.4,233.2 237.6,226 
				283.2,177.2 339.2,214 			"/>
		</g>
		<g>
			<defs>
				<path id="SVGID_13_" d="M12.8,396.4C12.8,558,144,689.2,305.6,689.2S598.4,558,598.4,396.4c0.8-162.4-130.4-293.6-292-293.6
					C144,102.8,12.8,234,12.8,396.4"/>
			</defs>
			<clipPath id="SVGID_14_">
				<use xlink:href="#SVGID_13_"  overflow="visible"/>
			</clipPath>
			<path clip-path="url(#SVGID_14_)" fill="#FBAD2E" d="M421.6,359.6c0,65.6-53.6,119.2-119.2,119.2s-119.2-53.6-119.2-119.2
				s53.6-119.2,119.2-119.2S421.6,294,421.6,359.6"/>
		</g>
		<path fill="#E87743" d="M218.5,352.1c-6,4,70.8,56,100.9,56s61.1-41,57.1-47S224.5,348.1,218.5,352.1z"/>
		<circle fill="#E87743" cx="348" cy="315" r="16.5"/>
		<circle fill="#E87743" cx="272" cy="308" r="16.5"/>
	</g>
	<g>
		<defs>
			<path id="SVGID_15_" d="M12.8,396.4C12.8,558,144,689.2,305.6,689.2S598.4,558,598.4,396.4c0.8-162.4-130.4-293.6-292-293.6
				C144,102.8,12.8,234,12.8,396.4"/>
		</defs>
		<clipPath id="SVGID_16_">
			<use xlink:href="#SVGID_15_"  overflow="visible"/>
		</clipPath>
		<path clip-path="url(#SVGID_16_)" fill="#44B64A" d="M312,748.4l-68-23.2c7.2,8.8-163.2-49.6-226.4-125.6
			C-3.2,574.8-16.8,390-16.8,390h622.4c0,0,6.4,156.8-12,196C575.2,625.2,312,748.4,312,748.4"/>
	</g>
	<g>
		<defs>
			<path id="SVGID_17_" d="M12.8,396.4C12.8,558,144,689.2,305.6,689.2S598.4,558,598.4,396.4c0.8-162.4-130.4-293.6-292-293.6
				C144,102.8,12.8,234,12.8,396.4"/>
		</defs>
		<clipPath id="SVGID_18_">
			<use xlink:href="#SVGID_17_"  overflow="visible"/>
		</clipPath>
		<path clip-path="url(#SVGID_18_)" fill="#339E47" d="M297.6,390c0,0-45.6,26.4-48,54.4c-5.6,66.4,107.2,46.4,116.8,71.2
			c16,42.4-181.6,44-168,131.2c5.6,36.8,57.6,76,100,103.2L424,679.6c-52-8.8-92-18.4-84.8-36.8c15.2-39.2,116-68,117.6-107.2
			c3.2-72.8-85.6-78.4-127.2-80c-54.4-2.4-12-64.8-12-64.8h-20V390z"/>
	</g>
</g>
<circle fill="none" stroke="#0E90D0" stroke-width="3.27" stroke-miterlimit="10" cx="306.4" cy="396.4" r="292.8"/>
</svg>
