<svg version="1.1" id="Layer_1" xmlns="http://www.w3.org/2000/svg" xmlns:xlink="http://www.w3.org/1999/xlink" x="0px" y="0px"
	 viewBox="0 0 76.5 76.5" enable-background="new 0 0 76.5 76.5" preserveAspectRatio="xMidYMid meet" xml:space="preserve">
<g>
	<defs>
		<path id="SVGID_1_" d="M1.6,38.3c0,20.2,16.4,36.6,36.6,36.6c20.2,0,36.6-16.4,36.6-36.6C74.9,18,58.5,1.6,38.3,1.6
			C18,1.6,1.6,18,1.6,38.3"/>
	</defs>
	<clipPath id="SVGID_2_">
		<use xlink:href="#SVGID_1_"  overflow="visible"/>
	</clipPath>
	<path clip-path="url(#SVGID_2_)" fill="#E3F4FC" d="M74.9,38.3c0,20.2-16.4,36.6-36.6,36.6C18,74.9,1.6,58.5,1.6,38.3
		C1.6,18,18,1.6,38.3,1.6C58.5,1.6,74.9,18,74.9,38.3"/>
	<polygon class="sunrays" clip-path="url(#SVGID_2_)" fill="#E87743" points="50.8,14.6 53.2,22.6 60.2,27.3 56.8,35 59.2,43 51.7,46.8 48.3,54.5 
		40.2,52.5 32.7,56.3 27.7,49.5 19.5,47.5 20,39.2 15,32.4 20.8,26.3 21.3,17.9 29.7,17 35.4,10.9 42.4,15.5 	"/>
	<path clip-path="url(#SVGID_2_)" fill="#FBAD2E" d="M52.7,33.7c0,8.2-6.7,14.9-14.9,14.9s-14.9-6.7-14.9-14.9
		c0-8.2,6.7-14.9,14.9-14.9S52.7,25.5,52.7,33.7"/>
	<path clip-path="url(#SVGID_2_)" fill="#44B64A" d="M39,82.3l-8.5-2.9c0.9,1.1-20.4-6.2-28.3-15.7c-2.6-3.1-4.3-26.2-4.3-26.2h77.8
		c0,0,0.8,19.6-1.5,24.5C71.9,66.9,39,82.3,39,82.3"/>
	<path clip-path="url(#SVGID_2_)" fill="#339E47" d="M37.2,37.5c0,0-5.7,3.3-6,6.8c-0.7,8.3,13.4,5.8,14.6,8.9
		c2,5.3-22.7,5.5-21,16.4c0.7,4.6,7.2,9.5,12.5,12.9L53,73.7c-6.5-1.1-11.5-2.3-10.6-4.6c1.9-4.9,14.5-8.5,14.7-13.4
		c0.4-9.1-10.7-9.8-15.9-10c-6.8-0.3-1.5-8.1-1.5-8.1H37.2z"/>
	<path clip-path="url(#SVGID_2_)" fill="#E3F4FC" d="M74.9,38.3c0,20.2-16.4,36.6-36.6,36.6C18,74.9,1.6,58.5,1.6,38.3
		C1.6,18,18,1.6,38.3,1.6C58.5,1.6,74.9,18,74.9,38.3"/>
	<polygon clip-path="url(#SVGID_2_)" fill="#E87743" points="50.8,14.6 53.2,22.6 60.2,27.3 56.8,35 59.2,43 51.7,46.8 48.3,54.5 
		40.2,52.5 32.7,56.3 27.7,49.5 19.5,47.5 20,39.2 15,32.4 20.8,26.3 21.3,17.9 29.7,17 35.4,10.9 42.4,15.5 	"/>
	<path clip-path="url(#SVGID_2_)" fill="#FBAD2E" d="M52.7,33.7c0,8.2-6.7,14.9-14.9,14.9s-14.9-6.7-14.9-14.9
		c0-8.2,6.7-14.9,14.9-14.9S52.7,25.5,52.7,33.7"/>
	<path clip-path="url(#SVGID_2_)" fill="#44B64A" d="M39,82.3l-8.5-2.9c0.9,1.1-20.4-6.2-28.3-15.7c-2.6-3.1-4.3-26.2-4.3-26.2h77.8
		c0,0,0.8,19.6-1.5,24.5C71.9,66.9,39,82.3,39,82.3"/>
	<path clip-path="url(#SVGID_2_)" fill="#339E47" d="M37.2,37.5c0,0-5.7,3.3-6,6.8c-0.7,8.3,13.4,5.8,14.6,8.9
		c2,5.3-22.7,5.5-21,16.4c0.7,4.6,7.2,9.5,12.5,12.9L53,73.7c-6.5-1.1-11.5-2.3-10.6-4.6c1.9-4.9,14.5-8.5,14.7-13.4
		c0.4-9.1-10.7-9.8-15.9-10c-6.8-0.3-1.5-8.1-1.5-8.1H37.2z"/>
</g>
<circle fill="none" stroke="#0E90D0" stroke-width="3.27" stroke-miterlimit="10" cx="38.3" cy="38.3" r="36.6"/>
</svg>
